<?xml version="1.0" encoding="UTF-8"?><svg id="b" xmlns="http://www.w3.org/2000/svg" viewBox="0 0 1140.94 613.22"><defs><style>.c{fill:#231f20;}</style></defs><path class="c" d="M792.17,613.22c-12.05,0-29.19-.68-34.53-4.33-1.43-.98-2.69-2.1-3.74-3.32-2.72-.4-4.86-1.24-6.14-2.76-2.82-3.36-1.59-6.84-.6-9.64.61-1.74,1.19-3.38.83-4.81-.5-1.94-1.72-3.27-3.14-4.81-1.33-1.45-2.84-3.09-3.75-5.4-3.02-7.62-1.97-14.52-.33-21.64-.31.22-.62.42-.94.59-2.45,1.34-5.13,1.3-7.74-.09-.51-.27-.88-.75-1.01-1.32-.7-3.05-1.69-5.91-2.65-8.67-2.02-5.81-4.1-11.81-3.43-19.54,1.04-12.03.83-19.73-.83-30.52-3.25-21.11-5.72-41.7-.47-61.53,4.5-16.98,15.67-19.99,27.5-23.18,2.55-.69,5.14-1.39,7.75-2.24-3.35.34-6.7.52-9.98.4-3.95-.13-8.37-2.05-12.64-3.9-3.83-1.66-7.79-3.38-10.17-3.11-5.64.62-6.26,5.16-6.8,12.52-.17,2.27-.34,4.61-.78,6.79-.55,2.7-1.08,5.01-1.66,6.9-.58,4.3-1.23,8.61-2.07,12.78-3.54,17.51-4.61,34.48-3.19,50.42.3,3.33,1.62,9.75,3.16,17.19,5.58,27.08,9.35,48.19,3,53.15-.35.27-.79.42-1.23.42h-110.87c-.1,0-.19,0-.29-.02-2.13-.31-4.18-.92-6.14-1.79.37,5.44-.73,10.87-4.66,16.02-4.68,6.12-12.27,8.31-21.96,6.32-9.63-1.98-10.54-4.83-10.31-10.87.08-2.12.18-4.77-.51-8.12-.13-.62-.3-1.22-.51-1.8-2.11-.48-4.24-1.07-6.35-1.66-2.39-.66-4.85-1.35-7.19-1.84-.07.07-.14.14-.21.21-2.51,2.57-2.58,6.49-2.64,10.64-.08,4.78-.16,10.2-4.46,13.8-4.58,3.84-14.48,3.04-23.41,1.99l-.97-.11c-13.54-1.57-15.46-7.16-14.47-18.33.04-.41.07-.81.11-1.19-16.92,3.23-33.58,4.83-43.2-2.14-4.55-3.29-7.19-8.28-7.87-14.82-2.18-21.08,3.25-44.18,8.19-59.85,2.17-6.89,4.97-13.61,7.67-20.1,5.04-12.1,9.79-23.53,11.02-36.28,1.38-14.28-.76-26.88-3.02-40.22-1.13-6.68-2.3-13.58-3-20.72-.48-5-.95-10.08-1.35-15.21-.01.01-.03.03-.04.04-.39.41-.95.62-1.52.62-.18,0-.36-.02-.54-.03.97,2.19,1.36,4.55.35,7.08-1.51,3.8-4,4.72-5.81,4.82-6.48.35-13.71-9.14-15.49-12.46-2.34-4.36-4.65-13.49-4.92-20.96-.32-.13-.64-.28-.96-.45-10.48-5.51-5.72-28.83-.43-50.26.65-2.62,1.2-4.88,1.51-6.41l.11-.54c3.35-16.53,7.94-39.17-1.02-53.23-.91-1.43-3.55-3.64-6.72-6.13,3.92,16.26,2.33,33.58.79,50.56-.55,6.01-1.11,12.22-1.41,18.23-.16,3.28-.45,6.59-.72,9.79-.53,6.15-1.08,12.51-.75,18.75.15,2.8.7,5.8,1.28,8.99,1.02,5.59,2.08,11.36,1.13,16.92-2.09,12.21-15.05,14.58-25.46,16.48-7.6,1.39-12.74,2.54-14.36,5.32,2.66,0,5.47-.14,8.39-.29,5.74-.31,11.67-.63,17.09.37,20.38,3.78,17.23,35.01,15.54,51.79l-.02.22c-1.14,11.26-1.21,22.88-1.29,34.12-.07,10.45-.14,21.25-1.06,31.84-.58,6.69-2.93,11.99-5.2,17.1-1.53,3.45-3.12,7.02-4.14,11-1.52,5.94-.02,12.84,1.42,19.51.75,3.47,1.53,7.06,1.85,10.42,1.05,11.15,1.22,21.86-8.24,30.38-.27.24-.54.47-.83.7,5.21,1.04,10,3.17,12.75,9.46.31.71.18,1.54-.33,2.12-8.13,9.21-26.37,6.5-34.23.24-.79-.63-.99-1.74-.46-2.6,2.09-3.43,5.5-5.39,9.1-7.01-7.18-1.11-7.66-2.88-9.14-12.83l-.12-.82c-1.57-10.57-.06-20.4,1.41-29.91,1.06-6.87,2.15-13.97,2.07-21.3-.19-17.68-2.81-35.34-5.34-52.42l-.42-2.82c-.62-4.21-.32-9.98,0-16.1.61-11.46,1.35-25.49-4.39-31.16-1.61,5.06.12,14.8,1.67,23.51,1.53,8.61,2.98,16.74,2.06,22.54-.6,3.82-1.54,7.19-2.45,10.45-1.43,5.15-2.78,10.01-2.48,15.73.25,4.79,1.04,9.5,1.81,14.06.85,5.07,1.72,10.3,1.93,15.84.19,5.15-.57,9.91-1.3,14.52-.67,4.21-1.3,8.18-1.27,12.42.04,4.68,1.31,8.52,2.65,12.58.89,2.71,1.82,5.51,2.45,8.73,1.7,8.62.76,14.75-2.86,18.74-5.77,6.35-17.23,5.8-29.45,4.59-.78-.08-1.45-.61-1.7-1.35-1.83-5.44-.15-10.45,4.61-13.72,6.18-4.26,16.27-4.86,22.87-1.82-.26-4.35-2.97-7.73-6.02-11.53-2.63-3.28-5.35-6.68-6.63-10.99-2.24-7.57.18-13.41,2.52-19.06,1.39-3.36,2.83-6.83,3.25-10.67,1.41-12.75-5.55-25.73-12.29-38.29-3.7-6.91-7.2-13.43-9.38-19.92-1.91-5.69-3.39-11.24-4.81-16.6-1.28-4.81-2.52-9.5-4.04-14.15-.65,6.57-1.21,13.22-1.44,19.79-.79,22.24,2.72,42.96,6.64,62.04.43,2.09,1.09,4.76,1.87,7.86,4.08,16.39,10.24,41.15.49,51.02-.38.38-.89.59-1.42.59h-52.41c-.16,0-.31-.02-.46-.05-5.23-1.25-9.5-3.16-13-5.54.22,2.61.38,5.24.42,7.86.32,21.26-23.3,27.04-41.08,29.54-13.66,1.92-25.03-.56-32.03-6.97-5.98-5.48-8.73-13.49-8.19-23.8,1.51-28.64,13.13-56.05,24.37-82.56,4.9-11.56,9.97-23.51,14-35.18,6.98-20.21,12.47-41.36,17.43-62.46-4.13-23.78-6.5-45.05-6.28-68.68l.02-2.22c.08-12.72.21-34.01,9.82-43.38,4.03-3.93,7.51-5.32,10.62-4.25,5.18,1.78,6.95,9.77,8.09,18.14,2.45,18.01-2.49,36.53-7.28,54.43-1.51,5.65-3.07,11.5-4.33,17.12l-.34,1.5c-2.03,9.08-4.09,18.26-6.24,27.45,1.13,6.46,2.39,13.1,3.76,20.04.52,2.62,1.06,5.25,1.6,7.89,3.53,17.16,7.17,34.91,5.37,52.89-.23,2.32-.48,4.64-.72,6.97-1.85,17.65-3.75,35.91-1.09,53.89,1.31,8.88,3.53,15.73,6.93,20.92-1.2-11.02-2.1-22.37,1.63-34.03,2.19-6.84,5.24-13.3,8.19-19.54,4.47-9.45,8.69-18.38,10.32-28.72,2.8-17.7-.66-36.26-4.01-54.22-.25-1.36-.51-2.72-.76-4.09-.38,1.08-.72,1.95-1.01,2.59-.29.64-.89,1.08-1.59,1.17-.69.08-1.39-.21-1.82-.76-9.42-12.16-11.71-34.45-6.79-66.24.78-5.04,2.57-11.69,4.65-19.39,3.5-12.98,7.6-28.18,8.63-41.8-.65-1.3-1.32-2.61-2-3.92-2.44-4.73-4.97-9.61-6.59-15.05-1.49-4.98-2.5-9.86-3.28-14.75-.86-.51-1.78-.98-2.75-1.41-2.83-1.24-8.32-1.84-14.13-2.48-9.46-1.04-19.99-2.2-25.91-6.54-6.33,13.7-23.52,13.83-38.77,13.93-3.33.02-6.47.05-9.49.2-1.7.08-3.35.15-4.93.18-.05.42-.09.83-.13,1.23-1.89,19.42-6.79,38.98-10.73,54.7-6.3,25.16-7.94,52.59-9.53,79.13-.76,12.71-1.55,25.86-2.84,38.67-.73,7.23-2.16,15.86-3.68,25-5.38,32.42-12.08,72.78,4.36,93.97.47.6.55,1.42.22,2.11-.34.69-1.03,1.12-1.8,1.12H2c-1.1,0-2-.9-2-2s.9-2,2-2h165.51c-14.63-23.12-8.15-62.18-2.89-93.85,1.51-9.07,2.93-17.64,3.64-24.75,1.28-12.73,2.06-25.84,2.82-38.51,1.6-26.72,3.25-54.34,9.64-79.86,3.9-15.59,8.76-34.99,10.63-54.12.03-.27.05-.54.08-.82-9.33-.14-16.19-1.68-20.64-6.37-4.75-5.01-6.27-13.15-4.91-26.39.96-9.32.46-18.74-.02-27.84-.5-9.38-1.01-19.08.02-28.9,1.03-9.77,6.5-15.39,11.79-20.83,4.84-4.97,9.4-9.66,10.21-17.37,1.02-9.8-1.62-18.89-4.41-28.51-2.27-7.82-4.62-15.91-4.86-24.48-.48-16.68,7.81-33.4,21.62-43.63,13.82-10.23,37.86-9.26,51.65-1.93,8.72,4.64,26.82,17.95,30.58,30.57,4.68,7.16,2.23,17.26.06,26.17-.48,1.98-.94,3.86-1.29,5.62-.3,1.48-.58,3.12-.89,4.85-2.03,11.63-4.81,27.56-17.15,30.03-5.07,1.01-10.57-.45-15.9-4.22-6.04-4.29-11.31-11.22-13.96-17.96-1.44,2.29-2.81,4.58-4.13,6.83-.31,11.16,3.32,26.87,6.24,30.69,2.54,3.31,4.9,5.01,7.03,5.05,3.57.06,7.13-4.27,10.93-8.85,4.78-5.77,10.22-12.32,17.58-12.01,32.38,1.31,42.44,61.32,42.44,83.03,0,9.62-.89,19.25-1.76,28.57-1.37,14.77-2.78,30.04-.58,45.21.76,5.22,2,10.53,3.2,15.66,3.88,16.55,7.89,33.65-3.85,50.17,2.94,12.05-2.37,37.58-6.63,52.78.67,3.91,1.4,7.8,2.12,11.67,3.41,18.29,6.94,37.2,4.03,55.58-1.73,10.9-6.27,20.51-10.66,29.8-2.9,6.13-5.89,12.47-8,19.05-3.76,11.75-2.45,23.53-1.18,34.93.12,1.09.24,2.19.36,3.29,3.74,3.35,8.42,5.62,14.24,7.04h51.29c7.36-8.79,1.48-32.4-2.07-46.64-.78-3.14-1.46-5.85-1.9-8.02-3.97-19.32-7.53-40.33-6.72-62.99.34-9.39,1.31-18.88,2.29-28.1-1.57-3.68-3.42-7.35-5.72-11.03-9.32-14.93-10.98-32.25-12.58-49l-.19-1.96c-1.27-13.23-3.53-47.55,3.63-75.14-4.42-.74-8.23-2.18-10.28-4.8-.49-.63-.56-1.5-.18-2.2,4.37-7.92,5.89-17.28,7.5-27.19,1.56-9.63,3.18-19.58,7.64-28.38,5.14-10.15,15.57-16.25,25.65-22.16,2.4-1.4,4.73-2.77,6.97-4.17.38-1.46.73-2.92,1.04-4.38.61-2.91.92-5.76,1.07-8.62-6.8-13.19-9.97-34.47-8.28-43.44,1.55-8.24,6.82-15.71,14.45-20.51,8.25-5.19,18.26-6.74,27.46-4.27,14.51,3.9,18.3,22.66,18.35,33.26,2.19.96,3.13,2.5,3.53,3.73,1.93,5.9-4.88,15.12-11.79,23.36-.54.64-1.1,1.31-1.23,1.5-3.39,4.92-3.75,10.61-4.14,16.63-.31,4.8-.63,9.76-2.51,14.57-2.18,5.57-9.76,18.84-18.07,21.93-1.07.4-2.12.62-3.13.66,9.04,16.29,5.39,48.39,3.09,68.57-.58,5.13-1.09,9.55-1.21,12.35-.13,3.09-.29,6.13-.45,9.14-.36,6.65-.69,12.94-.7,19.72,0,2.16.35,5.07.73,8.14.85,6.93,1.81,14.78-.66,19.25-3.6,6.51-14.98,8.85-23.35,6.97-10.49-2.37-11.55-10-12.79-18.84-.11-.81-.23-1.65-.36-2.5-2.33-15.81-3.15-34.01-2.3-51.26.18-3.73.94-8.32,1.73-13.18,1.7-10.4,3.79-23.11.54-30.9-6.07,5.74-10.32,14.04-13.26,23.51,3.02.2,6.73.22,11.29,0,.65-.03,1.27.25,1.67.76.4.51.53,1.18.35,1.8-5.71,19.32-8.35,45.22-6.42,62.97.72,6.63,2.64,13.49,4.49,20.13,2.64,9.45,5.36,19.22,4.82,28.77-.48,8.42-1.38,16.87-2.25,25.04-.02.18-.04.35-.06.53,3.01,7.3,4.95,14.61,6.96,22.19,1.41,5.3,2.86,10.78,4.73,16.35,2.08,6.17,5.5,12.55,9.12,19.31,7.02,13.1,14.28,26.64,12.74,40.62-.49,4.41-2.04,8.14-3.53,11.76-2.26,5.46-4.22,10.18-2.38,16.39,1.06,3.57,3.42,6.51,5.92,9.63,2.03,2.53,4.09,5.1,5.43,8.04-.59-2.84-1.44-5.42-2.26-7.92-1.38-4.18-2.81-8.49-2.85-13.8-.04-4.58.65-8.9,1.32-13.09.74-4.62,1.43-8.98,1.26-13.74-.19-5.27-1.05-10.38-1.87-15.32-.78-4.67-1.59-9.5-1.85-14.51-.34-6.37,1.1-11.54,2.62-17.01.88-3.15,1.78-6.42,2.35-10,.81-5.13-.65-13.31-2.05-21.22-2.1-11.8-4.08-22.94-.05-28.44.61-.83,1.74-1.06,2.62-.55,9.7,5.66,8.84,21.86,8.09,36.14-.31,5.91-.61,11.49-.05,15.3l.42,2.82c2.55,17.21,5.19,35.01,5.39,52.96.08,7.66-1.04,14.92-2.12,21.95-1.49,9.64-2.89,18.75-1.4,28.71l.12.82c.67,4.54,1.08,7.27,1.93,8.27.69.81,2.37,1.04,6.12,1.5.87.11,1.82.22,2.88.36.44.06.88.12,1.32.17,1.59-.79,3.04-1.67,4.26-2.77,7.35-6.62,8.11-14.61,6.93-27.03-.3-3.13-1.01-6.44-1.77-9.95-1.54-7.13-3.14-14.5-1.39-21.35,1.1-4.31,2.76-8.03,4.36-11.64,2.24-5.04,4.35-9.8,4.87-15.82.9-10.43.97-21.15,1.04-31.52.08-11.33.15-23.05,1.31-34.5l.02-.22c1.56-15.5,4.47-44.35-12.29-47.45-4.95-.92-10.64-.61-16.15-.31-3.75.2-7.63.41-11.25.23-1.09-.05-1.93-.97-1.9-2.05.22-7.85,8.94-9.45,18.19-11.13,10.14-1.85,20.62-3.77,22.24-13.23.83-4.86-.16-10.28-1.12-15.53-.61-3.31-1.18-6.44-1.34-9.5-.34-6.52.22-13.02.76-19.31.27-3.16.56-6.43.71-9.64.3-6.09.87-12.35,1.43-18.39,1.68-18.4,3.4-37.22-2.19-54.37-8.45-6.57-17.1-13.81-17.05-20.3.02-2.38,1.14-4.43,3.33-6.07.81-.61,1.95-.51,2.65.22,7.08,7.45,11.67,15.45,14.54,23.79.44.34.87.67,1.29.99,5.11,3.95,9.14,7.06,10.71,9.52,2.3,3.61,3.8,7.67,4.71,11.98-.81-15.43,1.5-30.4,4.66-43,4.3-17.16,10.93-36.56,18.66-54.65,6.42-15.03,12.55-21.72,22.01-27.57.02-.13.06-.25.11-.37,2.31-5.82,6.49-9.96,10.57-13.94.67-6.55-1.98-12.83-4.75-19.4-3.03-7.19-6.17-14.62-4.92-22.75,1.56-10.13,5.75-16.13,11.53-19.78-.47-.02-.95-.05-1.42-.09-1-.08-1.79-.88-1.85-1.88-.15-2.61.65-4.84,2.39-6.62,1.4-1.43,3.34-2.46,5.59-3.19-1.35-2.78-.75-4.81,0-6.04,1.67-2.74,5.76-4.15,11.14-4.88,2.46-3.03,5.06-6.01,8.39-7.64,8.19-4,20.55-5.57,28.34-.84,5.51,3.34,8.89,6.69,10.12,9.98.72.54,1.35,1.17,1.85,1.89,1.01,1.45,1.47,3.14,1.36,5.07,1.4.33,2.55.78,3.41,1.4.47.34.78.87.83,1.45.05.58-.16,1.16-.57,1.57-.52.53-.98.96-1.43,1.35,2.35,2.58,3.4,5.68,4.35,8.48.28.83.56,1.66.88,2.48.37.95.71,1.85,1.03,2.72,1.92,5.09,3.19,8.46,6.44,12.47.99,1.22,2.58,3.04,4.41,5.15,15.95,18.31,32.52,38.68,27.17,48.75-1.05,1.98-2.68,3.17-4.7,3.79,10.77,8.61,18.59,17.11,26.99,28.94,17.46,24.59,21,58.57,24.12,88.56.82,7.9,1.6,15.36,2.59,22.56,2.18,15.78,3.18,40.61-1.17,58.65-1.13,4.7-3.74,8.51-7.75,11.36.06,9.74-2.97,19.78-14.26,24.7-6.48,2.82-11.23,1.91-14.29-.53-.08,26.11-4.6,52.79-9.01,78.81-1.08,6.34-2.09,12.33-3.05,18.35-2.42,15.17-6.22,30.03-9.89,44.39-1.45,5.68-2.96,11.55-4.35,17.37-2.08,8.65-2.91,17.76-3.72,26.57-.76,8.28-1.54,16.79-3.34,25.13.23.87.44,1.74.62,2.61,2.29,1.31,4.71,2.21,7.25,2.6h109.91c4.11-5.2-1.7-33.4-4.87-48.77-1.56-7.56-2.91-14.08-3.22-17.64-1.45-16.32-.36-33.67,3.26-51.56.37-1.84.7-3.71,1.01-5.6-2.5.11-4.38-2.36-6.51-8.43-2.91-8.3-.92-15.14,1.2-22.38.48-1.66.98-3.37,1.42-5.11,1.79-7.11,1.11-12.65.25-19.67-.21-1.71-.43-3.49-.62-5.37-.94-9.25.28-18.55,1.45-27.54,1.14-8.73,2.23-17.04,1.51-25.26-2.49-.3-4.71-.99-6.29-2.91-1.97-2.4-2.46-6.16-1.58-12.17,1.12-7.72,3.92-15.36,6.62-22.76,1.94-5.32,3.78-10.35,5.03-15.38,5.29-21.26,15.59-33.41,31.46-46.2.16-.81.36-1.6.54-2.31.71-2.82,1.12-4.82.45-6.3-3.48,1.22-6.11,1.17-8.02-.14-3.29-2.25-3.14-7.14-3-11.87.07-2.35.14-4.78-.29-6.24-.5-1.69-2.07-2.96-3.6-4.2-1.42-1.15-2.76-2.23-3.3-3.75-1.5-4.15-1-5.66-.02-7.66.49-.99,1.04-2.11,1.32-4.56.28-2.44-.03-5.77-.36-9.3-.37-4.02-.77-8.37-.36-12.24-.49-.53-.94-1.11-1.34-1.77-2.12-3.49-2.57-7.44-1.29-11.45,1.63-5.1,6.04-9.82,11.22-12.03,13.72-5.86,40.54-2.69,51.12,9.22,12.72,14.32,10.97,37.3,2.67,52.61-1.76,3.25-3.71,5.92-5.44,8.27-.36.49-.71.96-1.04,1.43-1.32,7.52-1.24,14.83,2.45,22.03,2.87,5.59,6.58,8.19,10.89,11.21,2.75,1.93,5.6,3.92,8.47,6.86,6.84,6.98,7.1,14.33,7.38,22.11.08,2.11.15,4.3.36,6.58.27,2.98,1.15,6.47,2.08,10.16,1.97,7.8,4.02,15.85,1.18,22.07-1.64,3.59-5.79,6.77-11.39,8.71-4.44,1.54-10.5,2.49-15.39,1.07.06,1.75.11,3.54.11,5.37,0,3.67-.14,7.23-.4,10.72.39-1.61.86-3.09,1.44-4.36,3.55-7.91,8.63-8.34,14-8.8,2.46-.21,5-.42,7.77-1.34.8-.26,1.68,0,2.2.66,3.69,4.7,2.36,8.84,1.07,12.84-.49,1.51-.99,3.07-1.27,4.76-.49,2.93-.56,5.34-.62,7.67-.07,2.6-.14,5.29-.79,8.6-1.45,7.27-4.5,15.4-7.46,23.25-1.91,5.07-3.88,10.31-5.34,15.14-2.13,7.05-1.96,15.05-1.79,22.8.35,16.08.72,32.7-21.6,36.31-.74.12-1.49-.19-1.93-.79-7.65-10.48-3.58-27.52-1.09-36.8-1.15.22-2.33.45-3.51.67-1.41,1.21-2.98,2.24-4.72,3.04-5.12,2.38-10.15,3.73-15.01,5.04-11.6,3.13-20.76,5.6-24.67,20.35-5.06,19.08-2.62,39.22.55,59.89,1.71,11.15,1.93,19.09.86,31.48-.59,6.87,1.26,12.22,3.23,17.88.9,2.58,1.82,5.24,2.54,8.12,1.12.4,2.14.32,3.17-.24,1.8-.98,3.46-3.15,4.96-6.1,3.62-16.49,7.7-37.44,9.4-60.1-.98-6.9-2.71-13.61-4.41-20.19-1.6-6.21-3.26-12.63-4.27-19.1-1.35-8.69,1.34-13.25,4.6-13.92,1.37-.28,6.01-.41,8.57,9.65,1.91,7.5,1.18,17.7.53,26.71-.19,2.67-.37,5.19-.47,7.44-.13,3.12-.31,6.2-.54,9.26.74,5.34,1.03,10.83.56,16.52-.03.37-2.56,29.42-10.12,44.86-.11.5-.22,1-.33,1.49-.32,1.45-.66,2.87-1,4.28-1.91,7.93-3.55,14.77-.57,22.31.64,1.62,1.78,2.86,2.98,4.16,1.56,1.69,3.32,3.61,4.06,6.53.28,1.09.29,2.15.16,3.16.69-1.08,1.58-2.09,2.66-3.02,3.75-3.24,9.07-2.89,14.23-2.54,4.64.31,9.01.6,11.5-1.71,5.71-5.3,2.57-23.39.04-37.92-1.54-8.85-2.87-16.5-2.4-21.32,2.09-21.49,6.07-46.1,11.84-73.12.56-2.63,3.64-15.75,9.16-15.78h.02c3.6,0,5.14,4.81,6.08,9.01,1.53,6.87-1.21,16.04-3.63,24.13-.73,2.44-1.42,4.74-1.91,6.74-4.81,19.63-8.3,40.14-10.35,60.96-1.17,11.89-1.39,21.83,1.33,31.68.75,2.73,1.87,5.18,2.94,7.54,2.46,5.41,5,11,2.29,18.86-3.74,10.82-10.34,10.82-19.49,10.83-.95,0-1.95,0-2.99.01-.88,0-2.4.16-4.17.33-3.08.3-6.09.55-8.85.63,6.71,3.75,33.85,3.55,43.97,3.14h334.66c1.1,0,2,.89,2,2s-.9,2-2,2h-334.58c-1.3.05-6.1.23-12.2.23ZM756.01,601.78c4.21.29,9.77-.25,12.77-.54,1.93-.19,3.46-.34,4.51-.35,1.05-.01,2.06-.01,3.03-.01,8.86,0,12.9,0,15.71-8.13,2.19-6.35.28-10.56-2.15-15.89-.79-1.74-1.6-3.52-2.3-5.45-.04,6.44-1.21,11.78-4.46,14.8-3.75,3.49-9.21,3.12-14.49,2.77-4.54-.3-8.84-.59-11.34,1.58-2.16,1.87-3.18,4.03-3.04,6.43.09,1.62.71,3.27,1.76,4.8ZM750.24,596.67c-.37,1.45-.31,2.5.59,3.57,0,0,0,0,.01.01-.33-1.01-.52-2.03-.58-3.05-.01-.18-.02-.36-.02-.53ZM267.7,394.21c-4.43,18.24-9.37,36.43-15.42,53.96-4.07,11.8-9.17,23.82-14.1,35.43-11.11,26.19-22.59,53.26-24.06,81.21-.48,9.06,1.85,16.01,6.9,20.64,6.1,5.59,16.31,7.71,28.77,5.96,16.29-2.29,37.91-7.42,37.64-25.52-.06-3.8-.38-7.68-.77-11.5-7.53-7.44-10.22-17.73-11.68-27.59-2.73-18.49-.8-37,1.07-54.9.24-2.32.48-4.64.72-6.95,1.74-17.38-1.84-34.82-5.31-51.69-.54-2.65-1.09-5.29-1.61-7.92-.75-3.79-1.47-7.49-2.15-11.13ZM400.99,581.63c6.98,4.28,19.81,5.78,26.21.05-2.84-5.12-7.78-5.88-13.93-6.65-1.13.52-2.27,1.01-3.41,1.49-3.45,1.46-6.74,2.85-8.87,5.11ZM505.85,566.01c-.07.72-.15,1.51-.23,2.35-.88,9.92.38,12.79,10.94,14.01l.98.11c5.43.64,16.73,1.97,20.37-1.08,2.89-2.43,2.96-6.31,3.03-10.8.06-3.71.12-7.83,2.15-11.24-6.7.04-16.51,2.18-26.79,4.42-3.43.75-6.93,1.51-10.45,2.23ZM565.72,564.13c.01.06.03.12.04.17.8,3.83.68,6.87.6,9.09-.17,4.38-.2,5.29,7.11,6.8,5.64,1.16,13.33,1.26,17.97-4.83,3.55-4.65,4.36-9.54,3.77-14.64-.08.01-.16.02-.23.03-4.04.23-8.2,1.03-12.22,1.81-4.37.84-8.89,1.71-13.15,1.81-1.26.02-2.55-.06-3.88-.23ZM364.13,576.54c10.65,1.01,20.4,1.34,24.73-3.43,1.09-1.2,1.85-2.73,2.26-4.61-.16.12-.33.21-.52.28-.66.24-1.41.11-1.95-.34-4.71-3.88-15.35-3.8-21.09.16-2.96,2.04-4.11,4.7-3.43,7.93ZM474.06,306.79c-.4,3.44-.7,6.87-.87,10.28-.91,18.07.58,37.23,2.33,55.25.68,7,1.84,13.83,2.96,20.44,2.21,13.01,4.49,26.46,3.06,41.27-1.29,13.34-6.38,25.59-11.31,37.43-2.67,6.41-5.43,13.04-7.55,19.77-4.83,15.31-10.13,37.84-8.03,58.23.56,5.44,2.6,9.36,6.24,11.99,8.62,6.24,24.82,4.44,41.3,1.22.3-2.7.46-4.35.14-5.09-.31-.7-1.58-1.49-3.69-2.79-1.07-.66-2.4-1.48-3.98-2.53-5.57-3.68-10.81-9.36-15.58-16.9-8.42-13.33-10.51-29.61-6.38-49.77,3.36-16.42,11.38-31.21,19.14-45.51,10.41-19.19,20.24-37.32,20.21-59.44v-3.01c.01-16.01.03-35.94-7.85-49.23-5.1-8.61-13.28-16.76-21.19-24.64-2.17-2.17-4.29-4.27-6.31-6.36-.63,3.3-1.48,6.47-2.64,9.37ZM477.47,292.44c2.62,2.78,5.43,5.58,8.36,8.5,8.08,8.06,16.44,16.39,21.8,25.43,8.44,14.23,8.42,34.77,8.41,51.27v3c.03,23.14-10.51,42.56-20.69,61.35-7.62,14.04-15.49,28.57-18.73,44.4-3.97,19.37-2.11,34.25,5.84,46.83,4.46,7.05,9.3,12.33,14.4,15.7,1.53,1.01,2.83,1.81,3.88,2.46,5.45,3.37,6.15,4.29,5.56,10.46,3.08-.64,6.15-1.31,9.15-1.96,12.8-2.79,23.96-5.21,31.17-4.32,3.13-2.37,6.62-3.13,10.02-2.14,3.15.92,5.81,3.25,7.5,6.41,1.89.36,3.68.57,5.37.53,3.93-.09,8.08-.89,12.48-1.74,3.21-.62,6.5-1.25,9.82-1.62-12.72-10.73-20.76-31.44-24.13-41.68-5.63-17.11,1.98-30.13,9.33-42.73,4.02-6.89,8.18-14.01,10.28-21.86,2.75-10.28,3.6-20.95,2.33-29.28-.68-4.5-2.53-8.76-4.48-13.28-1.99-4.6-4.04-9.36-4.84-14.5-3.71-24.01,8.18-48.13,15.6-60.38,3.58-5.9,10.39-13.57,18.02-18.48-.35-1.42-.73-2.83-1.13-4.24-1.78-6.17-3.97-11.9-6.1-17.44-4-10.42-7.77-20.27-8.99-32.73-.35-3.55-.62-7.29-.89-10.91-1.01-13.65-2.06-27.77-7.05-39.44-2.82-6.58-6.82-13.66-11.05-21.15-13.24-23.44-28.26-50-14.05-74.32,4.2-7.2,8.38-11.76,17.26-13.79,1.35-.31,3.06-.23,5.03.1-1.14-1.83-2.15-3.77-3.02-5.89-3.92-1.96-7.71-4.06-10.85-6.71-.49,2.61-1.39,5.12-2.79,7.39-2.45,3.98-7.57,8.79-18.02,9.11-4.89.15-8.18-.2-12.58-2.55-1.51-.81-2.95-2.65-4.48-4.61-.89-1.14-2.37-3.04-3.02-3.37-2.87-.37-8.77,3.82-13.08,6.89-2.46,1.75-4.78,3.4-6.59,4.3l-1.03.52c-3.24,1.62-6.14,3.07-8.78,4.47-1.06.83-2.12,1.38-3.15,1.73-10.53,5.99-16.52,11.96-23.08,27.3-7.65,17.9-14.2,37.09-18.46,54.05-6.75,26.91-9.52,64.92,15.09,94.09.36-1.77.74-3.53,1.13-5.3.17-3.8.21-7.54.25-11,.04-3.2.07-6.23.2-8.85.52-10.56,3.11-19.82,5.62-28.77,2.19-7.83,4.27-15.22,5.06-23.43.38-3.9-.35-10.49-1.12-17.48-1.69-15.24-3.43-31.01,3.07-36.13.72-.57,1.74-.57,2.47,0,12,9.33,12.32,35.81.96,78.7-1.31,4.95-2.72,10.04-4.09,14.97-2.97,10.72-5.99,21.62-8.43,32.54-.15,3.18-.38,6.41-.78,9.58ZM553.18,557.02c.96.26,1.92.53,2.87.79.5.14.99.28,1.48.41-.63-.43-1.31-.75-2.01-.96-.77-.23-1.56-.3-2.34-.24ZM614.89,318.98c-6.56,4.56-12.47,11.33-15.54,16.39-7.14,11.78-18.59,34.94-15.07,57.7.72,4.64,2.67,9.16,4.56,13.53,1.96,4.55,4,9.25,4.76,14.26,1.34,8.85.46,20.12-2.42,30.91-2.24,8.37-6.53,15.73-10.69,22.84-7.23,12.38-14.06,24.07-8.99,39.46,3.17,9.63,10.64,29.05,22.04,39.2-.89-2.87-2.01-5.78-3.15-8.74-1.64-4.28-3.34-8.7-4.23-12.92-5.08-24.14,3.44-48.46,11.68-71.99,4.72-13.48,9.18-26.21,11.2-38.78.56-3.48,1.14-6.99,1.72-10.53,5.04-30.47,10.23-61.89,4.13-91.33ZM619.27,320.49c5.52,29.46.41,60.43-4.56,90.48-.58,3.53-1.16,7.04-1.72,10.51-2.07,12.92-6.8,26.42-11.37,39.47-8.06,23.01-16.39,46.79-11.54,69.84.82,3.92,2.39,8,4.05,12.31.42,1.09.84,2.2,1.26,3.31.9-5.84,1.44-11.75,1.97-17.54.82-8.95,1.66-18.21,3.81-27.14,1.4-5.84,2.91-11.73,4.37-17.43,3.65-14.28,7.43-29.04,9.82-44.03.96-6.04,2.03-12.32,3.05-18.39,4.78-28.2,9.69-57.18,8.86-85.19-.38-1.8-.46-3.73-.25-5.69-.13-2.21-.3-4.41-.51-6.61-1.8-.3-3.51-.66-5.09-1.06-.56-.14-1.04-.52-1.3-1.04-.29-.58-.57-1.19-.84-1.81ZM799,439.17c-1.22.7-3.75,5.69-5.21,12.56-5.73,26.88-9.69,51.33-11.77,72.68-.42,4.29.93,12.04,2.36,20.25.05.29.1.58.15.87.14-3.19.4-6.5.74-9.96,2.07-21,5.58-41.7,10.44-61.52.51-2.09,1.22-4.44,1.96-6.93,2.17-7.25,4.86-16.27,3.56-22.12-.97-4.34-1.92-5.54-2.23-5.83ZM749.04,438.09s-.04,0-.06,0c-.83.17-2.42,3.11-1.45,9.39.97,6.28,2.61,12.6,4.19,18.72.49,1.89.98,3.8,1.46,5.71.04-.55.08-1.11.12-1.67.63-8.7,1.34-18.56-.41-25.43-1.33-5.2-3.23-6.72-3.84-6.72ZM776.52,403.12c.53,0,1.05.21,1.43.6.41.42.83.84,1.25,1.25.52.51.72,1.25.53,1.96-2.16,7.95-6.56,24.18-.62,33.85,17.62-3.41,17.34-16.09,16.99-32.05-.18-8.05-.36-16.38,1.96-24.04,1.5-4.96,3.5-10.26,5.43-15.39,2.9-7.71,5.9-15.67,7.28-22.62.59-2.96.65-5.37.72-7.92.06-2.47.13-5.03.67-8.23.33-1.97.9-3.75,1.41-5.32,1.04-3.23,1.77-5.5.33-8.05-2.64.71-5.06.91-7.23,1.1-5.05.43-8.1.69-10.69,6.45-2.47,5.5-2.87,16.48-3.14,23.75-.04,1.19-.08,2.31-.13,3.33-.13,2.92-.07,6.06,0,9.39.29,13.5.61,28.81-12.54,36.25-.32.18-.65.36-.98.53-.84,1.84-1.8,3.58-2.89,5.18.07,0,.15-.01.22-.01ZM714.68,322.54c.64,8.52-.49,17.13-1.58,25.49-1.15,8.77-2.33,17.83-1.44,26.62.19,1.85.4,3.6.61,5.29.87,7.14,1.62,13.3-.34,21.13-.45,1.8-.96,3.55-1.46,5.25-2.01,6.89-3.75,12.85-1.26,19.94,1.23,3.51,2.12,4.93,2.57,5.48.3-.45.71-1.31,1.22-2.97.29-2.17.56-4.34.83-6.48,1.07-8.55,2.17-17.4,4.32-25.86,5.45-21.48,12.13-58.47,5.83-71.99-3.07-1.48-6.34-1.73-9.3-1.89ZM726.65,399.38c3.26,0,7.16,1.69,11.26,3.47,3.93,1.71,7.99,3.47,11.18,3.57,6.8.23,14.11-.85,21.01-2.11,1.3-1.25,2.45-2.7,3.46-4.32-7.23,1.76-15.79.92-23.39-2.52-8.55-3.87-14.34-10.28-15.86-17.58-1.04-4.98-.92-11.72-.78-18.86.21-11.28.44-23.73-3.85-31.18,3.6,20.02-4.51,55.2-7.65,67.54-.29,1.13-.55,2.26-.8,3.41,1.21-.7,2.69-1.18,4.5-1.38.3-.03.62-.05.93-.05ZM336.67,277.17c-7.12,26.85-4.83,61.18-3.57,74.28l.19,1.97c1.56,16.29,3.17,33.14,11.99,47.27,1.15,1.84,2.19,3.67,3.14,5.49.64-6.2,1.24-12.5,1.59-18.75.51-8.88-2.01-17.91-4.68-27.47-1.9-6.79-3.86-13.82-4.61-20.77-1.89-17.41.48-42.42,5.79-61.86-3.16.11-6.58.11-9.85-.16ZM306.47,289.3c-1.63,12.3-5.06,25.01-7.93,35.64-2.05,7.58-3.81,14.13-4.56,18.96-4.33,28.05-3.01,48.23,3.92,60.09.56-1.66,1.18-3.67,1.82-5.94-3.27-19.33-5.05-39.04,1.92-58.39.29-.82,1.1-1.36,1.95-1.32.25,0,.51.03.79.07-.87-8.35.81-17.51,2.32-25.83.64-3.5,1.24-6.82,1.58-9.73.57-4.86-.28-9.27-1.82-13.55ZM726.92,321.46c11.22,6.5,10.9,24.1,10.61,39.65-.13,6.91-.25,13.43.7,17.96,1.26,6.04,6.22,11.42,13.6,14.75,8.13,3.68,17.39,4.06,24.3,1.14,3.47-8.37,4.64-18.9,5.55-26.96l.16-1.42c.66-5.8,1.48-11.37,2.28-16.75,1.65-11.11,3.2-21.61,3.18-33.12,0-2.28-.08-4.55-.16-6.74-.18-4.97-.35-9.74.31-14.75-.06-.59-.13-1.18-.2-1.76-1.35-12.08-2.88-25.78,2.73-31.43,1.95-1.96,4.55-2.79,7.72-2.46.93.1,1.66.82,1.78,1.75.93,7.63-1.62,14.24-4.08,20.65-1.11,2.88-2.26,5.87-3.02,8.84-.39,1.52-.68,3.01-.89,4.48.55,5.05.93,9.24.56,12.11,3.4,1.06,8.47.74,13.23-.92,4.51-1.57,7.89-4.03,9.06-6.6,2.25-4.93.38-12.3-1.42-19.43-.98-3.85-1.9-7.49-2.19-10.79-.21-2.39-.29-4.62-.37-6.79-.27-7.59-.49-13.58-6.24-19.46-2.62-2.67-5.31-4.56-7.91-6.38-4.54-3.18-8.83-6.19-12.15-12.66-2.54-4.96-3.56-9.95-3.65-14.93-.32,1.15-.55,2.39-.67,3.75-.21,2.31-.28,4.33-.34,6.29-.22,6.73-.39,12.04-6.55,19.17-5.1,5.91-14.79,15.1-22.31,10.21-6.85-4.45-5.75-12.6-4.22-19.34-.23-.48-.4-.97-.52-1.47-13.73,11.5-22.76,22.91-27.48,41.91-1.3,5.23-3.26,10.6-5.16,15.79-2.63,7.2-5.35,14.65-6.41,21.96-.67,4.61-.43,7.66.72,9.06.59.72,1.54,1.11,2.75,1.34.07-.76.58-1.43,1.33-1.69,5.26-1.85,9.56-1.3,12.8,1.66,1,.91,1.86,2.04,2.59,3.36ZM789.01,343.94c-.3,2.14-.62,4.3-.95,6.47-.79,5.35-1.61,10.88-2.26,16.62l-.16,1.41c-.76,6.83-1.71,15.32-4.06,23.06,7.61-6.91,7.36-18.75,7.12-30.25-.07-3.4-.14-6.6,0-9.66.05-1.01.09-2.12.13-3.3.05-1.38.11-2.85.17-4.36ZM304.78,342.81c-4.92,14.88-4.55,30.18-2.52,45.39,3.39-14.34,6.38-32.38,4.5-41.15-.31-.23-.55-.55-.69-.93-.34-.94-.63-1.9-.87-2.88-.14-.17-.29-.32-.43-.43ZM278.08,269.55c-1.46,0-3.48,1.19-5.8,3.45-8.42,8.2-8.54,28.44-8.61,40.54l-.02,2.23c-.18,20.15,1.54,38.6,4.65,58.43,1.38-6.02,2.72-12.03,4.06-17.99l.34-1.51c1.28-5.7,2.85-11.59,4.37-17.28,4.68-17.53,9.52-35.65,7.18-52.86-.46-3.38-1.86-13.67-5.43-14.9-.23-.08-.47-.12-.73-.12ZM446.29,337.4c.4,6.38,2.27,14.33,4.38,18.27,2.26,4.21,8.33,10.56,11.74,10.36.39-.02,1.44-.08,2.32-2.31.97-2.44-.57-4.92-3.04-8.42-2.81-3.99-6.3-8.96-1.51-14.05.47-.5,1.16-.72,1.83-.6.67.13,1.23.58,1.49,1.22.69,1.7.98,3.64,1.27,5.52.47,3.09.88,4.99,1.86,5.96.01-1.28.08-2.58.15-3.85.29-5.68.56-11.04-3.39-13.82-2.92-2.05-6.05-1.03-9.67.16-2.32.76-4.84,1.57-7.43,1.57ZM351.66,244.53c.11,0,.21,0,.32.03.56.09,1.06.42,1.37.9,5.57,8.71,3.21,23.1,1.13,35.8-.78,4.74-1.51,9.22-1.68,12.73-.83,16.99-.03,34.92,2.27,50.48.13.87.25,1.71.36,2.53,1.33,9.52,2.23,13.8,9.7,15.49,7.54,1.7,16.58-.68,18.97-5,1.85-3.34.93-10.82.19-16.83-.39-3.2-.76-6.23-.76-8.64,0-6.88.36-13.51.71-19.93.16-3,.32-6.02.45-9.1.12-2.94.61-7.22,1.23-12.64,2.37-20.77,6.77-59.44-6.35-70.96-3.82-3.35-8.85-4.19-15.41-2.56-.69.17-1.42-.04-1.91-.55-.5-.51-.68-1.24-.49-1.93,1.14-4.12,2.56-8.35,3.92-12.44.93-2.78,1.88-5.61,2.75-8.45-1.11.66-2.22,1.31-3.32,1.95-9.58,5.61-19.49,11.42-24.1,20.51-4.18,8.24-5.74,17.88-7.26,27.21-1.51,9.3-3.07,18.9-7.24,27.14,1.27.99,3.5,1.94,7.34,2.51,3.45-11.46,8.7-21.45,16.55-27.83.36-.29.8-.45,1.26-.45ZM631.24,336.22c.17.67.39,1.31.67,1.91,1.96,4.15,6.26,5.03,12.13,2.48,8.4-3.66,11.45-10.74,11.83-18.72-6.74,3.13-15.17,3.84-22.91,3.28-1.03,1.88-1.68,3.91-1.95,5.9.1,1.71.17,3.43.23,5.15ZM312.18,303.99c-.36,2.86-.94,5.99-1.54,9.3-1.64,9-3.47,19.03-1.88,27.45,7.26-11.88,6.1-24.06,3.42-36.75ZM459.67,330.5c1.98,0,4,.5,6.01,1.91,1.48,1.04,2.56,2.28,3.33,3.66-.17-6.46-.14-12.89.18-19.2.03-.67.07-1.35.12-2.02-1.4,1.62-3.01,3.02-4.87,4.15-2.43,1.48-4.98,2.21-7.44,2.92-4.74,1.37-8.48,2.44-10.26,8.37-.26.86-.42,1.92-.49,3.12,1.95.01,3.98-.64,6.21-1.37,2.27-.74,4.7-1.54,7.2-1.54ZM450.65,246.61c.15,11.31-2.27,23.27-4.27,33.14l-.11.54c-.33,1.61-.89,3.91-1.55,6.57-2.95,11.95-9.72,39.4-2.37,45.25.12-1.09.3-2.09.57-2.98,2.41-8.01,8.03-9.63,12.98-11.06,2.31-.67,4.49-1.3,6.47-2.5,3.53-2.14,6.02-5.59,7.78-9.77.52-4.4,1.21-8.81,2.03-13.22-.37-.41-.74-.83-1.1-1.24-11.95-13.67-18.01-29.21-20.43-44.74ZM635.91,321.3c7.25.21,14.57-.86,19.93-3.89-.38-6.25-2.01-12.74-3.71-18.39-2.01-6.66-5.36-13.01-8.6-19.15-3.4-6.45-6.92-13.11-8.97-20.24-4.08-14.24,1.91-26.5,7.71-38.37,2.19-4.47,4.45-9.1,6.16-13.8,11.48-31.51-13.96-65.7-41.6-87.19-6.76-5.26-12.13-9.59-16.28-14.49-3.28-.85-6.2-1.43-7.71-1.09-6.77,1.55-10.34,4.44-14.7,11.91-13.05,22.34,1.36,47.84,14.08,70.33,4.29,7.59,8.34,14.76,11.25,21.55,5.25,12.28,6.33,26.74,7.36,40.72.28,3.76.54,7.31.88,10.82,1.16,11.92,4.85,21.52,8.75,31.68,1.77,4.62,3.59,9.36,5.2,14.42-.59-4.01-1-8.12-1.38-12.02-.38-3.87-.74-7.53-1.24-10.64-2.37-14.76-2.83-28.09-1.43-41.94.69-6.81,1.5-13.67,2.28-20.31.06-.5.12-.99.17-1.49-.33-5.23-.58-10.53-.84-15.99-.15-3.1-.3-6.22-.46-9.37-.1-1.88-.3-4.09-.51-6.43-1.03-11.47-2.31-25.75,4.2-33.03.41-.46,1-.7,1.62-.66.61.04,1.17.36,1.52.86,5.63,8.17,3.55,23.04,1.88,34.99-.4,2.84-.77,5.53-.98,7.77-.69,7.35-1.55,14.76-2.4,21.98.26,4.17.58,8.29.98,12.4,2.39,24.26,5.45,49.09,9.59,77.71,4.43.16,8.27,2.07,11.46,5.71.41.46.58,1.09.46,1.7-.12.61-.51,1.12-1.06,1.4-1.35.68-2.54,1.55-3.58,2.55ZM630.15,320.88c.25.03.5.06.75.08,1.21-1.65,2.69-3.14,4.45-4.38-1.83-1.52-3.86-2.37-6.12-2.59.07.51.15,1.02.22,1.53.26,1.78.49,3.57.7,5.36ZM623.28,319.68c.9.21,1.82.4,2.77.58-.17-1.39-.35-2.77-.56-4.15-.09-.63-.19-1.26-.28-1.89-1.18.23-2.37.58-3.56,1.05.47,1.57,1.01,3.05,1.63,4.41ZM598.05,107.83c3.14,2.94,6.86,5.89,11.23,9.29,28.75,22.35,55.12,58.18,42.91,91.72-1.79,4.9-4.09,9.62-6.32,14.19-5.72,11.7-11.11,22.75-7.46,35.51,1.93,6.73,5.2,12.92,8.66,19.48,3.33,6.31,6.78,12.83,8.89,19.87,1.06,3.52,2.95,9.8,3.66,16.73,2.06-2.02,3.45-4.48,4.14-7.34,3.95-16.38,3.39-40.51,1.09-57.17-1-7.27-1.78-14.76-2.61-22.7-3.07-29.49-6.55-62.92-23.41-86.66-9.01-12.68-17.33-21.43-29.58-30.74-3.47-.23-7.36-1.15-11.2-2.18ZM615.79,239.83c-.07.7-.14,1.4-.21,2.09-1.36,13.49-.92,26.49,1.4,40.9.52,3.24.89,6.95,1.27,10.89.57,5.81,1.19,12.09,2.41,17.67,1.33-.5,2.66-.88,3.98-1.13-3.73-25.75-6.58-48.45-8.85-70.43ZM795.64,263.55c-1.15.13-2.09.56-2.83,1.31-3.08,3.1-3.12,11.17-2.49,19.21.43-1.19.89-2.37,1.33-3.53,2.18-5.67,4.25-11.05,3.99-16.99ZM296.17,252.16c.63,3.27,1.4,6.53,2.39,9.82,1.23,4.11,3.06,7.99,4.96,11.73-.29-8.68-2.36-16.26-7.35-21.56ZM488.74,161.05c-3.35,5.34-1.71,20.2-.48,31.3.8,7.2,1.55,13.99,1.13,18.3-.83,8.56-3.05,16.47-5.19,24.12-2.45,8.74-4.98,17.77-5.48,27.88-.03.62-.06,1.27-.08,1.94,1.36-5.15,2.78-10.27,4.19-15.35,1.36-4.92,2.77-10,4.08-14.93,12.73-48.03,8.42-66.46,1.83-73.27ZM295.13,245.99c5.74,4.02,9.11,9.86,10.82,16.75-.02-9.71.87-19.31,1.74-28.71.85-9.23,1.74-18.77,1.74-28.2,0-19.86-9.5-77.85-38.6-79.03-5.41-.22-9.94,5.26-14.33,10.57-4.43,5.35-8.57,10.41-14.08,10.3-3.45-.07-6.76-2.23-10.13-6.61-2.85-3.71-6.06-15.47-6.89-26.39-1.03,1.86-2.12,3.79-3.24,5.78-4.3,7.65-9.15,16.26-13.36,25.22.16,1.44.33,2.92.5,4.42,1.91,16.57,4.28,37.2-6.62,49.92-.58.68-1.54.89-2.35.52-.81-.37-1.46-.65-2.19-.9,1.49,6.67,1.47,14.89.84,23.18,3.69-.14,7.96-1.28,11.32-2.18,1.13-.3,2.19-.58,3.14-.81,1.18-.28,2.43-.59,3.73-.92,11.1-2.77,24.85-6.19,31.07-.37,2.87-3.07,6.99-4.73,12.09-4.65,9.24.11,20.64,6.15,25.67,14.77.65-4.19.64-9.59.64-14.55,0-.97,0-1.93,0-2.87-.46-2-1.02-4.22-1.6-6.51-3.42-13.42-7.67-30.12-.62-38.51.36-.42.87-.68,1.43-.71.55-.03,1.09.17,1.49.56,8.02,7.72,5.79,22.29,4.15,32.93-.12.78-.24,1.54-.34,2.26-.39,2.66-.48,5.96-.5,9.54.33,1.45.59,2.8.78,4.02.87,5.71,1.44,11.26,2,16.63.51,4.96,1.01,9.79,1.72,14.57ZM226.84,24.45c-8.92,0-17.89,2.05-24.22,6.74-12.58,9.32-20.44,25.14-20,40.3.23,8.06,2.51,15.9,4.71,23.47,2.78,9.57,5.65,19.46,4.55,30.04-.95,9.09-6.22,14.51-11.32,19.75-5.04,5.18-9.79,10.06-10.68,18.46-1,9.5-.5,19.04,0,28.26.49,9.25,1,18.82,0,28.46-1.21,11.82,0,19.2,3.83,23.23,3.59,3.79,9.87,5.03,18.21,5.12.24-1.91.52-3.96.81-6.06.66-4.86,1.4-10.28,1.93-15.75-2.73-.57-5.06-1.94-6.54-4.6-2.73-4.88,2.13-25.94,3.74-29.52.31-.68.98-1.14,1.73-1.17.4-.02.78.08,1.1.27-2.26-14.75,2.93-31.14,10.02-46.47-.27-2.57-.49-5.04-.62-7.36-1.04-19.84,4.94-40.44,16.84-58.01,8.08-11.93,28.45-33.69,47.73-30.64,2.36.37,4.47.94,6.33,1.71-6.24-8.73-18-17.42-24.97-21.12-6.1-3.24-14.61-5.13-23.17-5.13ZM198.63,226.81c-.54,5.56-1.28,11.02-1.95,15.95-.26,1.9-.51,3.74-.73,5.48,1.37-.03,2.79-.09,4.25-.16,3.1-.15,6.29-.18,9.66-.2,15.27-.11,31.05-.22,35.77-13.07-1.62-2.5-2.04-5.48-1.23-8.86.36-1.49.86-2.86,1.49-4.09-.05-.06-.1-.11-.15-.17-4.38-4.71-17.81-1.36-27.62,1.08-1.31.33-2.57.64-3.77.93-.92.22-1.94.49-3.03.78-3.73,1-8.41,2.25-12.7,2.33ZM749.68,233.03c-1.02,5.6-.83,10,3.02,12.51,5.31,3.45,14.43-6.38,17.1-9.47,5.23-6.06,5.37-10.29,5.58-16.69.05-1.51.1-3.17.23-4.99-.97,1.61-2.21,3.38-3.87,5.62-.63.85-1.32,1.9-2.05,3.01-3.67,5.59-9.21,14.05-17.62,11.09-.91-.32-1.71-.68-2.39-1.08ZM250.1,233.96c4.56,4.32,15.76,5.55,24.9,6.55,6.38.7,11.9,1.31,15.29,2.79.15.07.3.13.44.2-.5-3.84-.9-7.71-1.31-11.66-.36,1.43-.82,2.72-1.42,3.81-.4.73-1.21,1.14-2.04,1.01-.83-.12-1.49-.74-1.66-1.56-2.04-9.56-14.59-17.1-24.03-17.22-3.24-.04-7.15.75-9.73,4.08,1.17,3.02,1.02,6.99-.44,12ZM750.6,228.78c.61.6,1.52,1.11,2.8,1.56,5.04,1.77,8.84-3.26,12.95-9.51.76-1.16,1.48-2.26,2.18-3.2,5.52-7.44,5.92-8.88,7.35-17.9.4-2.54,1.57-5.6,2.81-8.85,1.37-3.61,2.8-7.34,2.8-9.59,0-3.97-.63-5.41-1.17-5.91-.63-.59-1.93-.53-4-.39-2.33.16-5.23.36-8.35-.79-4.17-1.54-6.71-4.44-9.17-7.25-2.06-2.36-4.01-4.59-6.85-5.86-2.12-.95-5.07-1.31-8.2-1.7-3.58-.44-7.46-.92-10.68-2.42-.06,2.92.23,6.15.51,9.16.34,3.74.67,7.27.35,10.12-.35,3.13-1.13,4.72-1.71,5.88-.61,1.23-.83,1.69.2,4.54.17.46,1.21,1.31,2.06,1.99,1.81,1.47,4.06,3.29,4.92,6.17.61,2.08.53,4.71.45,7.5-.1,3.31-.22,7.43,1.26,8.45.92.63,2.95.34,5.69-.82.75-.32,1.62-.15,2.19.43,2.9,2.9,2.37,6.64,1.61,9.89.11.04.23.09.33.15.7.4,1.1,1.18,1,1.98-.2,1.67-.67,3.6-1.17,5.64-.06.25-.12.5-.18.75ZM193.92,199.15c-1.77,7.26-3.49,18.71-2.33,20.79.73,1.3,1.92,2.08,3.41,2.5.66-8.57.65-16.96-1.08-23.28ZM380.57,184.83s0,0,0,.01c-2.2,7.02-2.3,29.69,3.77,32.88,1.25.66,2.62.7,4.19.11,6.58-2.45,13.61-14.19,15.74-19.64,1.66-4.23,1.94-8.67,2.24-13.36.4-6.3.82-12.81,4.83-18.64.23-.33.63-.82,1.46-1.8,8.33-9.93,12.05-16.5,11.05-19.55-.1-.31-.37-1.15-2.22-1.6-.92-.23-1.55-1.06-1.52-2,.33-10.62-3.49-27.57-15.37-30.77-8.12-2.18-16.98-.8-24.29,3.79-6.69,4.2-11.3,10.71-12.65,17.86-1.34,7.13.55,20.89,4.32,32.17-.02-.52-.04-1.05-.05-1.58-.15-4.4-.31-8.95-.06-13.76.36-6.91,2.4-11.95,6.05-14.97,3.5-2.89,8.44-3.92,14.68-3.05,11.08,1.54,18.85,11.26,18.89,23.65.03,8.53-6.62,25.06-16.71,30.54-4.72,2.57-9.67,2.46-14.35-.28ZM370.11,212.04c2.51,0,4.83.41,6.95,1.22-2.25-7.39-2.09-17.78-1.29-24.42-.75.51-1.5,1.01-2.27,1.5-1.2,4.33-2.64,8.64-4.04,12.85-1,3-2.03,6.08-2.95,9.11,1.24-.17,2.44-.26,3.6-.26ZM416.76,193.53c-.41.63-.48,1.19-.48,1.61-.02,3.45,4.67,8.21,10.05,12.72-2.37-4.97-5.49-9.77-9.57-14.33ZM784.24,187.31c-.52,1.59-1.16,3.28-1.82,5-1.11,2.91-2.26,5.93-2.59,8.05-.07.41-.13.8-.19,1.19.55-.89,1.14-1.76,1.75-2.62.73-3.9,1.78-7.78,2.85-11.62ZM286.14,170.85c-3.07,6.42-.98,17.61,1.39,27.42,1.36-8.86,3.14-20.63-1.39-27.42ZM199.78,195.96c.27.1.53.2.78.3,8.27-10.93,6.79-27.89,5.03-43.36-6.13,14.75-9.74,29.98-5.81,43.06ZM617.7,160.16c-3.33,6.81-2.28,18.55-1.48,27.41.21,2.38.41,4.62.52,6.58.01.23.02.45.04.68.2-1.66.45-3.44.71-5.29,1.31-9.39,3.05-21.84.22-29.38ZM762.5,136.43c9.06,0,17.18,3.17,22.79,8.97,6.04,6.26,8.58,15.08,7.14,24.84-.84,5.7-2.41,11.28-3.92,16.68-.25.89-.5,1.77-.74,2.65.12-.21.23-.42.35-.63,7.63-14.08,9.35-35.1-2.14-48.04-9.31-10.49-34.13-13.51-46.56-8.2-4.1,1.75-7.7,5.6-8.98,9.57-.75,2.34-.7,4.57.15,6.66.13-.29.27-.56.41-.83,4.9-8.91,18.2-10.41,27-11.4,1.53-.17,3.03-.26,4.51-.26ZM375.66,180.4c-.17,1.27-.39,2.55-.66,3.85-.02.1-.04.2-.06.3.85-.61,1.67-1.23,2.47-1.87.06-.04.11-.09.17-.12-.66-.64-1.3-1.36-1.92-2.15ZM778.26,170.89c1.75,0,3.43.29,4.78,1.56,1.7,1.59,2.45,4.31,2.44,8.84,0,.87-.13,1.81-.35,2.82,1.32-4.74,2.62-9.6,3.34-14.46,1.27-8.63-.82-16.05-6.06-21.47-5.66-5.86-14.37-8.6-23.9-7.53-8.07.91-20.13,2.26-24.03,9.36-.42.77-.73,1.66-.95,2.64,2.72,1.79,6.76,2.29,10.7,2.77,3.43.42,6.67.82,9.34,2.02,3.63,1.63,5.97,4.3,8.22,6.88,2.22,2.54,4.32,4.94,7.54,6.13,2.31.85,4.54.7,6.69.55.74-.05,1.49-.1,2.22-.1ZM376.2,173.91c1.76,3.22,3.71,5.73,5.79,7.09,3.71,2.42,7.31,2.61,11.03.59,8.52-4.63,14.65-19.35,14.62-27.01-.03-10.5-6.24-18.42-15.44-19.7-5.09-.71-8.99.02-11.59,2.17-2.76,2.28-4.3,6.34-4.6,12.09-.24,4.63-.09,9.1.06,13.41.13,3.85.26,7.59.13,11.35ZM264.97,52.7c-15.33,0-32.48,16.97-40.74,29.16-11.41,16.86-17.15,36.59-16.16,55.56,0,.18.02.36.03.54,3.48-6.89,7.18-13.47,10.56-19.47,1.16-2.07,2.29-4.06,3.35-5.98,1.03-1.87,2.12-3.78,3.24-5.73.19-3.55.77-6.7,1.87-9.06,1.79-3.85,4.51-4.76,6.48-4.85.11,0,.22,0,.33.01,11.75-17.27,26.91-33.1,45-33.91-.04-.21-.09-.41-.14-.62-2.07-2.83-5.6-4.6-10.78-5.42-1.01-.16-2.03-.24-3.06-.24ZM236.13,96.79c1.77,6.75,7.25,14.58,13.49,19.01,3.07,2.18,7.78,4.57,12.8,3.56,9.65-1.93,12.16-16.3,13.99-26.79.31-1.77.6-3.43.91-4.95.37-1.84.83-3.75,1.33-5.77,1.54-6.37,3.25-13.41,2.12-18.9-17.79-.19-32.94,16.22-44.63,33.85ZM610.67,106.06c2.64,0,4.71-.58,5.6-2.25,4.51-8.49-17.32-33.55-26.65-44.25-1.94-2.22-3.47-3.98-4.51-5.26-3.66-4.51-5.17-8.52-7.08-13.58-.32-.85-.66-1.74-1.02-2.69-.33-.87-.64-1.75-.94-2.63-.95-2.8-1.86-5.47-3.94-7.5-.04.02-.08.04-.12.07-.79.43-1.77.29-2.4-.35-.34-.35-.69-.7-1.04-1.05-1.97.13-4.64.72-6.2,1.06-1.7.37-3.16.69-4.24.76-1.16.07-2.33.16-3.51.28-6.23,1.91-12.92,2.93-17.33,3.2l-.28.02s-.09,0-.14,0c4.89,1.05,9.47,3.51,13.47,7.29.52.49,1.03,1,1.52,1.53,1.49.23,2.98.58,4.48,1.13,15.91,5.77,25.05,18.41,27.95,38.65.65,4.5,1.57,8.29,2.81,11.62.86.42,1.73.84,2.62,1.27,4.62,2.22,9.39,4.51,13.7,7.49,2.56,1.77,4.97,3.5,7.24,5.2ZM592.83,102.24c.98.26,1.99.54,3.03.83,1.96.54,4.03,1.12,6.08,1.62-.26-.18-.52-.36-.78-.54-3.5-2.42-7.44-4.41-11.34-6.3.9,1.54,1.9,2.99,3.01,4.39ZM509.3,97.91c-.24,1.45-.63,2.93-1.19,4.42-.14.37-.28.73-.43,1.08.67-.34,1.35-.68,2.05-1.02l1.03-.51c1.53-.77,3.73-2.33,6.06-3.98,3.95-2.81,8-5.69,11.59-6.96-1.12-.74-2.21-1.6-3.28-2.58-2.04-1.86-3.74-3.99-5.16-6.31-1.73,6.84-6.17,11.47-10.67,15.88ZM537.71,94.32c.22.28.44.57.67.86,1.03,1.32,2.44,3.13,3.21,3.54,3.65,1.95,6.21,2.22,10.57,2.08,6.96-.21,11.92-2.64,14.74-7.21,1.51-2.45,2.37-5.53,2.59-8.96-3.6-4.55-5.42-10.54-3.93-19.12.15-.86.84-1.53,1.71-1.64.87-.12,1.71.35,2.08,1.14,2.45,5.28,4.3,11.91,4.23,18.33,2.22,2.41,5.15,4.36,8.5,6.2-.71-2.56-1.28-5.36-1.73-8.47-2.62-18.23-10.61-29.73-24.42-35.1,3.98,6.19,6.32,13.66,6.4,20.93.11,10.89-6.41,21.74-15.5,25.8-3.01,1.34-6.08,1.88-9.12,1.63ZM511.82,36.2c-6.19,3-10.5,8.34-12.02,18.28-1.08,7.01,1.71,13.6,4.65,20.58,2.3,5.45,4.65,11.02,5.1,16.9,4.11-4.41,7.31-9.28,7.17-16.73-1.32-3.59-2.22-7.42-2.85-11.33-.26-.68-.52-1.36-.79-2.05-3.14-8.15-6.69-17.38-1.26-25.65ZM520.69,74.41c1.63,4.26,3.91,8.05,7.13,11,6.91,6.33,13.27,5.47,17.38,3.64,7.71-3.44,13.23-12.74,13.13-22.11-.08-8.04-3.26-16.35-8.44-22.43-2.96-.27-5.97-.02-9.09.25-4.25.36-8.64.73-13.28-.19-8.43-1.66-10-4.69-9.83-6.95.12-1.58,1.14-2.94,2.9-3.98-.47.05-.93.09-1.4.14-1.63.35-3.18.77-4.64,1.29.68.29,1.14.94,1.2,1.69.18,2.43.3,5,.43,7.71.28,5.83.59,12.26,1.57,18.44,1.44,3.84,2.72,7.74,2.93,11.51ZM531.39,35.31c-.35,0-.71,0-1.06.02-6.04.28-8.48,2.03-8.64,2.6.09.26,1.48,1.69,6.62,2.7,4.09.81,8.19.46,12.16.12,1.71-.14,3.44-.29,5.19-.35-4.27-3.35-9.15-5.1-14.27-5.1ZM508.27,30.13c3.43.14,6.97-.02,10.55-.34,3.51-.73,7.25-1.14,11.1-1.45,2.23-.35,4.45-.73,6.66-1.1,5.7-.96,11.55-1.95,17.31-2.52,1.2-.38,2.37-.79,3.47-1.22-3.15.21-6.25.49-8.81.71-4.17.37-7.78.7-10.2.7-1.24,0-2.77-.05-4.54-.12-7.59-.28-20.29-.74-24.44,3.5-.53.54-.89,1.14-1.09,1.83ZM526.5,20.63c2.64,0,5.19.09,7.45.18,1.73.06,3.24.12,4.38.11,2.24,0,5.77-.32,9.85-.69,6.28-.56,11.95-1.01,16.64-1.05.86-.84,1.43-1.72,1.66-2.64.09-.37.12-.74.09-1.12-4.96-2.44-15.33-1.4-19.65-.97l-.29.03c-1.43.14-3.71.14-6.59.15-3.76,0-9.64,0-14.74.53-1.66,2.06-3.36,4.12-5.27,5.7,2.14-.18,4.33-.24,6.46-.24ZM519.11,16.26c-1.76.52-3.07,1.2-3.62,2.1-.08.13-.23.38-.21.83,1.32-.57,2.58-1.63,3.83-2.94ZM548.01,3.99c-5.11,0-10.55,1.35-14.65,3.35-1.57.77-3.03,2.04-4.43,3.53,3.47-.2,7.24-.24,11.1-.24,2.66,0,4.96,0,6.2-.13l.29-.03c4.44-.44,11.21-1.12,16.85-.15-1.61-1.48-3.62-2.86-5.5-4-2.71-1.65-6.2-2.34-9.86-2.34Z"/></svg>